<?xml version="1.0" encoding="UTF-8" standalone="no"?>
<!DOCTYPE svg PUBLIC "-//W3C//DTD SVG 1.1//EN"
 "http://www.w3.org/Graphics/SVG/1.1/DTD/svg11.dtd">
<!-- Generated by graphviz version 13.1.2 (20250808.2320)
 -->
<!-- Title: Gallstone Demo · Delivery View Pages: 1 -->
<svg width="1329pt" height="707pt"
 viewBox="0.00 0.00 1329.00 707.00" xmlns="http://www.w3.org/2000/svg" xmlns:xlink="http://www.w3.org/1999/xlink">
<g id="graph0" class="graph" transform="scale(1 1) rotate(0) translate(32.4 674.95)">
<title>Gallstone Demo · Delivery View</title>
<polygon fill="#fcfbf7" stroke="none" points="-32.4,32.4 -32.4,-674.95 1296.85,-674.95 1296.85,32.4 -32.4,32.4"/>
<text xml:space="preserve" text-anchor="middle" x="152" y="-621.45" font-family="Helvetica,sans-Serif" font-size="18.00" fill="#2d3436">Gallstone Demo · Delivery View</text>
<g id="clust1" class="cluster">
<title>cluster_Frontend delivery</title>
<path fill="#ffffff" stroke="#cbd5e1" d="M273.55,-304C273.55,-304 629.9,-304 629.9,-304 635.9,-304 641.9,-310 641.9,-316 641.9,-316 641.9,-499 641.9,-499 641.9,-505 635.9,-511 629.9,-511 629.9,-511 273.55,-511 273.55,-511 267.55,-511 261.55,-505 261.55,-499 261.55,-499 261.55,-316 261.55,-316 261.55,-310 267.55,-304 273.55,-304"/>
<text xml:space="preserve" text-anchor="middle" x="319.05" y="-495.6" font-family="Sans-Serif" font-size="12.00" fill="#111827">Frontend delivery</text>
</g>
<g id="clust2" class="cluster">
<title>cluster_Backend delivery</title>
<path fill="#fffdf4" stroke="#f6c945" d="M273.55,-80C273.55,-80 1244.45,-80 1244.45,-80 1250.45,-80 1256.45,-86 1256.45,-92 1256.45,-92 1256.45,-275 1256.45,-275 1256.45,-281 1250.45,-287 1244.45,-287 1244.45,-287 273.55,-287 273.55,-287 267.55,-287 261.55,-281 261.55,-275 261.55,-275 261.55,-92 261.55,-92 261.55,-86 267.55,-80 273.55,-80"/>
<text xml:space="preserve" text-anchor="middle" x="317.55" y="-271.6" font-family="Sans-Serif" font-size="12.00" fill="#111827">Backend delivery</text>
</g>
<!-- de75f9d03227485287269c724eff62e4 -->
<g id="node1" class="node">
<title>de75f9d03227485287269c724eff62e4</title>
<image xlink:href="/home/rosewt-dell/.local/lib/python3.12/site-packages/resources/onprem/vcs/github.png" width="100.8px" height="100.8px" preserveAspectRatio="xMinYMin meet" x="8.52651e-14" y="-221.4"/>
<text xml:space="preserve" text-anchor="middle" x="50.4" y="-105.3" font-family="Helvetica,sans-Serif" font-size="12.00" fill="#2d3436">GitHub repo</text>
<text xml:space="preserve" text-anchor="middle" x="50.4" y="-91.05" font-family="Helvetica,sans-Serif" font-size="12.00" fill="#2d3436">source of truth</text>
</g>
<!-- 09e77a193ac84118954b3f5bdb0b4fa0 -->
<g id="node3" class="node">
<title>09e77a193ac84118954b3f5bdb0b4fa0</title>
<image xlink:href="/home/rosewt-dell/WinterProject/scripts/assets/architecture_icons/vercel_badge.png" width="100.8px" height="100.8px" preserveAspectRatio="xMinYMin meet" x="269.55" y="-445.4"/>
<text xml:space="preserve" text-anchor="middle" x="319.95" y="-329.3" font-family="Helvetica,sans-Serif" font-size="12.00" fill="#2d3436">Vercel project</text>
<text xml:space="preserve" text-anchor="middle" x="319.95" y="-315.05" font-family="Helvetica,sans-Serif" font-size="12.00" fill="#2d3436">build + previews</text>
</g>
<!-- de75f9d03227485287269c724eff62e4&#45;&gt;09e77a193ac84118954b3f5bdb0b4fa0 -->
<g id="edge1" class="edge">
<title>de75f9d03227485287269c724eff62e4&#45;&gt;09e77a193ac84118954b3f5bdb0b4fa0</title>
<path fill="none" stroke="#0f172a" stroke-width="2" d="M50.45,-253.77C50.45,-317.58 50.45,-395 50.45,-395 50.45,-395 256.55,-395 256.55,-395"/>
<polygon fill="#0f172a" stroke="#0f172a" stroke-width="2" points="256.55,-398.5 266.55,-395 256.55,-391.5 256.55,-398.5"/>
<text xml:space="preserve" text-anchor="middle" x="185.18" y="-330.4" font-family="Sans-Serif" font-size="13.00" fill="#0f172a">build frontend</text>
</g>
<!-- 85d19a61fb464d9188147bb654c32c23 -->
<g id="node5" class="node">
<title>85d19a61fb464d9188147bb654c32c23</title>
<image xlink:href="/home/rosewt-dell/.local/lib/python3.12/site-packages/resources/programming/language/python.png" width="100.8px" height="100.8px" preserveAspectRatio="xMinYMin meet" x="269.55" y="-221.4"/>
<text xml:space="preserve" text-anchor="middle" x="319.95" y="-105.3" font-family="Helvetica,sans-Serif" font-size="12.00" fill="#2d3436">scripts/export_model.py</text>
<text xml:space="preserve" text-anchor="middle" x="319.95" y="-91.05" font-family="Helvetica,sans-Serif" font-size="12.00" fill="#2d3436">exporta pipeline</text>
</g>
<!-- de75f9d03227485287269c724eff62e4&#45;&gt;85d19a61fb464d9188147bb654c32c23 -->
<g id="edge4" class="edge">
<title>de75f9d03227485287269c724eff62e4&#45;&gt;85d19a61fb464d9188147bb654c32c23</title>
<path fill="none" stroke="#64748b" stroke-dasharray="5,2" d="M100.78,-171C100.78,-171 258.3,-171 258.3,-171"/>
<polygon fill="#64748b" stroke="#64748b" points="258.3,-174.5 268.3,-171 258.3,-167.5 258.3,-174.5"/>
<text xml:space="preserve" text-anchor="middle" x="185.18" y="-177.4" font-family="Sans-Serif" font-size="13.00" fill="#475569">código backend</text>
</g>
<!-- 5fccf146c16042b2888ed4e3e9949b2b -->
<g id="node7" class="node">
<title>5fccf146c16042b2888ed4e3e9949b2b</title>
<image xlink:href="/home/rosewt-dell/.local/lib/python3.12/site-packages/resources/programming/language/bash.png" width="100.8px" height="100.8px" preserveAspectRatio="xMinYMin meet" x="834.375" y="-221.4"/>
<text xml:space="preserve" text-anchor="middle" x="884.78" y="-105.3" font-family="Helvetica,sans-Serif" font-size="12.00" fill="#2d3436">scripts/deploy_hf_space.sh</text>
<text xml:space="preserve" text-anchor="middle" x="884.78" y="-91.05" font-family="Helvetica,sans-Serif" font-size="12.00" fill="#2d3436">hf upload</text>
</g>
<!-- de75f9d03227485287269c724eff62e4&#45;&gt;5fccf146c16042b2888ed4e3e9949b2b -->
<g id="edge6" class="edge">
<title>de75f9d03227485287269c724eff62e4&#45;&gt;5fccf146c16042b2888ed4e3e9949b2b</title>
<path fill="none" stroke="#64748b" stroke-dasharray="5,2" d="M50.45,-88.22C50.45,-77.52 50.45,-70.2 50.45,-70.2 50.45,-70.2 884.45,-70.2 884.45,-70.2 884.45,-70.2 884.45,-76.71 884.45,-76.71"/>
<polygon fill="#64748b" stroke="#64748b" points="880.95,-76.71 884.45,-86.71 887.95,-76.71 880.95,-76.71"/>
<text xml:space="preserve" text-anchor="middle" x="451.73" y="-6.4" font-family="Sans-Serif" font-size="13.00" fill="#475569">source of truth</text>
</g>
<!-- 4036e9eac07b43ef886c667918c1feff -->
<g id="node2" class="node">
<title>4036e9eac07b43ef886c667918c1feff</title>
<image xlink:href="/home/rosewt-dell/WinterProject/scripts/assets/architecture_icons/domain_badge.png" width="100.8px" height="100.8px" preserveAspectRatio="xMinYMin meet" x="834.375" y="-580.4"/>
<text xml:space="preserve" text-anchor="middle" x="884.78" y="-464.3" font-family="Helvetica,sans-Serif" font-size="12.00" fill="#2d3436">gallstone.rosewt.dev</text>
<text xml:space="preserve" text-anchor="middle" x="884.78" y="-450.05" font-family="Helvetica,sans-Serif" font-size="12.00" fill="#2d3436">frontend público</text>
</g>
<!-- dac2b897b4ae47ecb6b808afdb2c4073 -->
<g id="node4" class="node">
<title>dac2b897b4ae47ecb6b808afdb2c4073</title>
<image xlink:href="/home/rosewt-dell/.local/lib/python3.12/site-packages/resources/programming/framework/nextjs.png" width="100.8px" height="100.8px" preserveAspectRatio="xMinYMin meet" x="533.1" y="-445.4"/>
<text xml:space="preserve" text-anchor="middle" x="583.5" y="-329.3" font-family="Helvetica,sans-Serif" font-size="12.00" fill="#2d3436">demo/frontend</text>
<text xml:space="preserve" text-anchor="middle" x="583.5" y="-315.05" font-family="Helvetica,sans-Serif" font-size="12.00" fill="#2d3436">Next.js 16</text>
</g>
<!-- 09e77a193ac84118954b3f5bdb0b4fa0&#45;&gt;dac2b897b4ae47ecb6b808afdb2c4073 -->
<g id="edge2" class="edge">
<title>09e77a193ac84118954b3f5bdb0b4fa0&#45;&gt;dac2b897b4ae47ecb6b808afdb2c4073</title>
<path fill="none" stroke="#0f172a" stroke-width="2" d="M370.14,-395C370.14,-395 520.47,-395 520.47,-395"/>
<polygon fill="#0f172a" stroke="#0f172a" stroke-width="2" points="520.47,-398.5 530.47,-395 520.47,-391.5 520.47,-398.5"/>
<text xml:space="preserve" text-anchor="middle" x="451.73" y="-401.4" font-family="Sans-Serif" font-size="13.00" fill="#0f172a">despliega</text>
</g>
<!-- dac2b897b4ae47ecb6b808afdb2c4073&#45;&gt;4036e9eac07b43ef886c667918c1feff -->
<g id="edge3" class="edge">
<title>dac2b897b4ae47ecb6b808afdb2c4073&#45;&gt;4036e9eac07b43ef886c667918c1feff</title>
<path fill="none" stroke="#0f172a" stroke-width="2" d="M633.59,-462.5C633.59,-462.5 821.54,-462.5 821.54,-462.5"/>
<polygon fill="#0f172a" stroke="#0f172a" stroke-width="2" points="821.54,-466 831.54,-462.5 821.54,-459 821.54,-466"/>
<text xml:space="preserve" text-anchor="middle" x="714.15" y="-536.4" font-family="Sans-Serif" font-size="13.00" fill="#0f172a">sirve</text>
</g>
<!-- c6180a39e4364360bab0cf4d76b933e7 -->
<g id="node8" class="node">
<title>c6180a39e4364360bab0cf4d76b933e7</title>
<image xlink:href="/home/rosewt-dell/WinterProject/scripts/assets/architecture_icons/huggingface_badge.png" width="100.8px" height="100.8px" preserveAspectRatio="xMinYMin meet" x="1147.65" y="-221.4"/>
<text xml:space="preserve" text-anchor="middle" x="1198.05" y="-105.3" font-family="Helvetica,sans-Serif" font-size="12.00" fill="#2d3436">HF Space</text>
<text xml:space="preserve" text-anchor="middle" x="1198.05" y="-91.05" font-family="Helvetica,sans-Serif" font-size="12.00" fill="#2d3436">API pública</text>
</g>
<!-- dac2b897b4ae47ecb6b808afdb2c4073&#45;&gt;c6180a39e4364360bab0cf4d76b933e7 -->
<g id="edge9" class="edge">
<title>dac2b897b4ae47ecb6b808afdb2c4073&#45;&gt;c6180a39e4364360bab0cf4d76b933e7</title>
<path fill="none" stroke="#64748b" stroke-dasharray="5,2" d="M633.82,-379.7C780.69,-379.7 1198.45,-379.7 1198.45,-379.7 1198.45,-379.7 1198.45,-265.3 1198.45,-265.3"/>
<polygon fill="#64748b" stroke="#64748b" points="1201.95,-265.3 1198.45,-255.3 1194.95,-265.3 1201.95,-265.3"/>
<text xml:space="preserve" text-anchor="middle" x="884.78" y="-376.4" font-family="Sans-Serif" font-size="13.00" fill="#475569">consume API por URL pública</text>
</g>
<!-- e66e87ab6b2a41cb8722db68d9ced615 -->
<g id="node6" class="node">
<title>e66e87ab6b2a41cb8722db68d9ced615</title>
<image xlink:href="/home/rosewt-dell/WinterProject/scripts/assets/architecture_icons/artifacts_badge.png" width="100.8px" height="100.8px" preserveAspectRatio="xMinYMin meet" x="533.1" y="-221.4"/>
<text xml:space="preserve" text-anchor="middle" x="583.5" y="-105.3" font-family="Helvetica,sans-Serif" font-size="12.00" fill="#2d3436">demo/backend/models</text>
<text xml:space="preserve" text-anchor="middle" x="583.5" y="-91.05" font-family="Helvetica,sans-Serif" font-size="12.00" fill="#2d3436">joblib + json</text>
</g>
<!-- 85d19a61fb464d9188147bb654c32c23&#45;&gt;e66e87ab6b2a41cb8722db68d9ced615 -->
<g id="edge5" class="edge">
<title>85d19a61fb464d9188147bb654c32c23&#45;&gt;e66e87ab6b2a41cb8722db68d9ced615</title>
<path fill="none" stroke="#0f172a" stroke-width="2" d="M370.14,-171C370.14,-171 520.47,-171 520.47,-171"/>
<polygon fill="#0f172a" stroke="#0f172a" stroke-width="2" points="520.47,-174.5 530.47,-171 520.47,-167.5 520.47,-174.5"/>
<text xml:space="preserve" text-anchor="middle" x="451.73" y="-177.4" font-family="Sans-Serif" font-size="13.00" fill="#0f172a">genera</text>
</g>
<!-- e66e87ab6b2a41cb8722db68d9ced615&#45;&gt;5fccf146c16042b2888ed4e3e9949b2b -->
<g id="edge7" class="edge">
<title>e66e87ab6b2a41cb8722db68d9ced615&#45;&gt;5fccf146c16042b2888ed4e3e9949b2b</title>
<path fill="none" stroke="#0f172a" stroke-width="2" d="M633.59,-171C633.59,-171 821.54,-171 821.54,-171"/>
<polygon fill="#0f172a" stroke="#0f172a" stroke-width="2" points="821.54,-174.5 831.54,-171 821.54,-167.5 821.54,-174.5"/>
<text xml:space="preserve" text-anchor="middle" x="714.15" y="-177.4" font-family="Sans-Serif" font-size="13.00" fill="#0f172a">se empaqueta</text>
</g>
<!-- 5fccf146c16042b2888ed4e3e9949b2b&#45;&gt;c6180a39e4364360bab0cf4d76b933e7 -->
<g id="edge8" class="edge">
<title>5fccf146c16042b2888ed4e3e9949b2b&#45;&gt;c6180a39e4364360bab0cf4d76b933e7</title>
<path fill="none" stroke="#0f172a" stroke-width="2" d="M935.11,-171C935.11,-171 1134.81,-171 1134.81,-171"/>
<polygon fill="#0f172a" stroke="#0f172a" stroke-width="2" points="1134.81,-174.5 1144.81,-171 1134.81,-167.5 1134.81,-174.5"/>
<text xml:space="preserve" text-anchor="middle" x="1061.4" y="-177.4" font-family="Sans-Serif" font-size="13.00" fill="#0f172a">publica backend</text>
</g>
</g>
</svg>
